HIERARCHY
ROOT Hips
{
	OFFSET 0.000000 100.481300 0.000000
	CHANNELS 6 Xposition Yposition Zposition Xrotation Yrotation Zrotation
	JOINT Spine
	{
		OFFSET -0.279200 12.230698 -2.892100
		CHANNELS 3 Xrotation Yrotation Zrotation
		JOINT Spine1
		{
			OFFSET -0.325700 14.269203 -3.374200
			CHANNELS 3 Xrotation Yrotation Zrotation
			JOINT Spine2
			{
				OFFSET -0.372300 16.307602 -0.352600
				CHANNELS 3 Xrotation Yrotation Zrotation
				JOINT Neck
				{
					OFFSET -0.418800 17.814194 8.416900
					CHANNELS 3 Xrotation Yrotation Zrotation
					JOINT Head
					{
						OFFSET 0.000000 7.031097 3.806800
						CHANNELS 3 Xrotation Yrotation Zrotation
						JOINT HeadTop_End
						{
							OFFSET 0.000000 24.646606 12.978600
							CHANNELS 3 Xrotation Yrotation Zrotation
							End Site
							{
								OFFSET 0.000000 27.854965 0.000000
							}
						}
					}
				}
				JOINT LeftShoulder
				{
					OFFSET 16.952999 14.495407 -7.737500
					CHANNELS 3 Xrotation Yrotation Zrotation
					JOINT LeftArm
					{
						OFFSET 9.308998 -2.777710 0.208600
						CHANNELS 3 Xrotation Yrotation Zrotation
						JOINT LeftForeArm
						{
							OFFSET 29.972298 0.000000 0.000000
							CHANNELS 3 Xrotation Yrotation Zrotation
							JOINT LeftHand
							{
								OFFSET 26.026505 0.000000 0.000000
								CHANNELS 3 Xrotation Yrotation Zrotation
								JOINT LeftHandThumb1
								{
									OFFSET 12.240501 -7.147949 9.207150
									CHANNELS 3 Xrotation Yrotation Zrotation
									JOINT LeftHandThumb2
									{
										OFFSET 4.138618 -2.389435 2.389433
										CHANNELS 3 Xrotation Yrotation Zrotation
										JOINT LeftHandThumb3
										{
											OFFSET 2.726913 -1.574387 1.574386
											CHANNELS 3 Xrotation Yrotation Zrotation
											JOINT LeftHandThumb4
											{
												OFFSET 3.941010 -2.275345 2.275342
												CHANNELS 3 Xrotation Yrotation Zrotation
												End Site
												{
													OFFSET -0.005798 5.087799 0.009903
												}
											}
										}
									}
								}
								JOINT LeftHandIndex1
								{
									OFFSET 24.424698 -1.985611 5.953459
									CHANNELS 3 Xrotation Yrotation Zrotation
									JOINT LeftHandIndex2
									{
										OFFSET 6.426697 0.000000 0.000000
										CHANNELS 3 Xrotation Yrotation Zrotation
										JOINT LeftHandIndex3
										{
											OFFSET 5.337898 0.000000 0.000000
											CHANNELS 3 Xrotation Yrotation Zrotation
											JOINT LeftHandIndex4
											{
												OFFSET 4.409401 0.000000 0.000000
												CHANNELS 3 Xrotation Yrotation Zrotation
												End Site
												{
													OFFSET 0.000000 4.409363 0.014373
												}
											}
										}
									}
								}
								JOINT LeftHandMiddle1
								{
									OFFSET 23.810104 0.000000 0.000000
									CHANNELS 3 Xrotation Yrotation Zrotation
									JOINT LeftHandMiddle2
									{
										OFFSET 7.176498 0.000000 0.000000
										CHANNELS 3 Xrotation Yrotation Zrotation
										JOINT LeftHandMiddle3
										{
											OFFSET 6.774902 0.000000 0.000000
											CHANNELS 3 Xrotation Yrotation Zrotation
											JOINT LeftHandMiddle4
											{
												OFFSET 5.403328 0.000000 0.000000
												CHANNELS 3 Xrotation Yrotation Zrotation
												End Site
												{
													OFFSET -0.027702 5.403244 0.017414
												}
											}
										}
									}
								}
								JOINT LeftHandRing1
								{
									OFFSET 22.908401 -0.839279 -6.020567
									CHANNELS 3 Xrotation Yrotation Zrotation
									JOINT LeftHandRing2
									{
										OFFSET 6.337502 0.000000 0.000000
										CHANNELS 3 Xrotation Yrotation Zrotation
										JOINT LeftHandRing3
										{
											OFFSET 5.779297 0.000000 0.000000
											CHANNELS 3 Xrotation Yrotation Zrotation
											JOINT LeftHandRing4
											{
												OFFSET 4.965698 0.000000 0.000000
												CHANNELS 3 Xrotation Yrotation Zrotation
												End Site
												{
													OFFSET 0.000000 4.965668 0.016186
												}
											}
										}
									}
								}
								JOINT LeftHandPinky1
								{
									OFFSET 20.037003 -1.530319 -10.950146
									CHANNELS 3 Xrotation Yrotation Zrotation
									JOINT LeftHandPinky2
									{
										OFFSET 5.254700 0.000000 0.000000
										CHANNELS 3 Xrotation Yrotation Zrotation
										JOINT LeftHandPinky3
										{
											OFFSET 4.810204 0.000000 0.000000
											CHANNELS 3 Xrotation Yrotation Zrotation
											JOINT LeftHandPinky4
											{
												OFFSET 3.647202 0.000000 0.000000
												CHANNELS 3 Xrotation Yrotation Zrotation
												End Site
												{
													OFFSET 0.000000 3.647186 0.011889
												}
											}
										}
									}
								}
							}
						}
					}
				}
				JOINT RightShoulder
				{
					OFFSET -15.141001 14.495407 -7.737500
					CHANNELS 3 Xrotation Yrotation Zrotation
					JOINT RightArm
					{
						OFFSET -9.308998 -2.777710 0.208500
						CHANNELS 3 Xrotation Yrotation Zrotation
						JOINT RightForeArm
						{
							OFFSET -29.972300 0.000000 0.000000
							CHANNELS 3 Xrotation Yrotation Zrotation
							JOINT RightHand
							{
								OFFSET -26.026505 0.000000 0.000000
								CHANNELS 3 Xrotation Yrotation Zrotation
								JOINT RightHandThumb1
								{
									OFFSET -12.240601 -7.148026 9.207092
									CHANNELS 3 Xrotation Yrotation Zrotation
									JOINT RightHandThumb2
									{
										OFFSET -4.138618 -2.389435 2.389433
										CHANNELS 3 Xrotation Yrotation Zrotation
										JOINT RightHandThumb3
										{
											OFFSET -2.726974 -1.574417 1.574421
											CHANNELS 3 Xrotation Yrotation Zrotation
											JOINT RightHandThumb4
											{
												OFFSET -3.941010 -2.275345 2.275343
												CHANNELS 3 Xrotation Yrotation Zrotation
												End Site
												{
													OFFSET 0.005814 5.087799 0.009927
												}
											}
										}
									}
								}
								JOINT RightHandIndex1
								{
									OFFSET -24.424698 -1.985657 5.953444
									CHANNELS 3 Xrotation Yrotation Zrotation
									JOINT RightHandIndex2
									{
										OFFSET -6.426697 0.000000 0.000000
										CHANNELS 3 Xrotation Yrotation Zrotation
										JOINT RightHandIndex3
										{
											OFFSET -5.337898 0.000000 0.000000
											CHANNELS 3 Xrotation Yrotation Zrotation
											JOINT RightHandIndex4
											{
												OFFSET -4.409401 0.000000 0.000000
												CHANNELS 3 Xrotation Yrotation Zrotation
												End Site
												{
													OFFSET 0.000000 4.409363 0.014408
												}
											}
										}
									}
								}
								JOINT RightHandMiddle1
								{
									OFFSET -23.810097 0.000000 0.000000
									CHANNELS 3 Xrotation Yrotation Zrotation
									JOINT RightHandMiddle2
									{
										OFFSET -7.176498 0.000000 0.000000
										CHANNELS 3 Xrotation Yrotation Zrotation
										JOINT RightHandMiddle3
										{
											OFFSET -6.774902 0.000000 0.000000
											CHANNELS 3 Xrotation Yrotation Zrotation
											JOINT RightHandMiddle4
											{
												OFFSET -5.403328 0.000000 0.000000
												CHANNELS 3 Xrotation Yrotation Zrotation
												End Site
												{
													OFFSET 0.027702 5.403244 0.017457
												}
											}
										}
									}
								}
								JOINT RightHandRing1
								{
									OFFSET -22.908302 -0.839325 -6.020576
									CHANNELS 3 Xrotation Yrotation Zrotation
									JOINT RightHandRing2
									{
										OFFSET -6.337502 0.000000 0.000000
										CHANNELS 3 Xrotation Yrotation Zrotation
										JOINT RightHandRing3
										{
											OFFSET -5.779297 0.000000 0.000000
											CHANNELS 3 Xrotation Yrotation Zrotation
											JOINT RightHandRing4
											{
												OFFSET -4.965698 0.000000 0.000000
												CHANNELS 3 Xrotation Yrotation Zrotation
												End Site
												{
													OFFSET 0.000000 4.965668 0.016226
												}
											}
										}
									}
								}
								JOINT RightHandPinky1
								{
									OFFSET -20.037003 -1.530334 -10.950259
									CHANNELS 3 Xrotation Yrotation Zrotation
									JOINT RightHandPinky2
									{
										OFFSET -5.254700 0.000000 0.000000
										CHANNELS 3 Xrotation Yrotation Zrotation
										JOINT RightHandPinky3
										{
											OFFSET -4.810204 0.000000 0.000000
											CHANNELS 3 Xrotation Yrotation Zrotation
											JOINT RightHandPinky4
											{
												OFFSET -3.647202 0.000000 0.000000
												CHANNELS 3 Xrotation Yrotation Zrotation
												End Site
												{
													OFFSET 0.000000 3.647186 0.011917
												}
											}
										}
									}
								}
							}
						}
					}
				}
			}
		}
	}
	JOINT LeftUpLeg
	{
		OFFSET 15.427100 -6.655098 0.678600
		CHANNELS 3 Xrotation Yrotation Zrotation
		JOINT LeftLeg
		{
			OFFSET 4.081073 -39.591068 13.024000
			CHANNELS 3 Xrotation Yrotation Zrotation
			JOINT LeftFoot
			{
				OFFSET -4.081074 -37.707932 -15.979700
				CHANNELS 3 Xrotation Yrotation Zrotation
				JOINT LeftToeBase
				{
					OFFSET 5.346399 -15.068900 20.645000
					CHANNELS 3 Xrotation Yrotation Zrotation
					JOINT LeftToe_End
					{
						OFFSET 2.754700 0.931300 11.300900
						CHANNELS 3 Xrotation Yrotation Zrotation
						End Site
						{
							OFFSET 0.000000 11.669021 0.000000
						}
					}
				}
			}
		}
	}
	JOINT RightUpLeg
	{
		OFFSET -15.569500 -6.655098 0.678600
		CHANNELS 3 Xrotation Yrotation Zrotation
		JOINT RightLeg
		{
			OFFSET -4.081825 -39.591045 13.023800
			CHANNELS 3 Xrotation Yrotation Zrotation
			JOINT RightFoot
			{
				OFFSET 4.081824 -37.707954 -15.979600
				CHANNELS 3 Xrotation Yrotation Zrotation
				JOINT RightToeBase
				{
					OFFSET -5.346400 -15.068900 20.645000
					CHANNELS 3 Xrotation Yrotation Zrotation
					JOINT RightToe_End
					{
						OFFSET -2.754700 0.931300 11.300900
						CHANNELS 3 Xrotation Yrotation Zrotation
						End Site
						{
							OFFSET 0.000000 11.669021 0.000000
						}
					}
				}
			}
		}
	}
}
MOTION
Frames: 5
Frame Time: 0.033333
-0.495275 91.675667 -3.009714 3.192916 4.565901 -2.169820 4.080726 -0.996709 -1.185907 1.180187 -0.262905 -0.044095 1.181211 -0.259444 -0.044305 1.670257 0.975682 0.683827 -1.516339 -6.298897 3.326037 -0.000000 -0.000000 0.000000 0.740979 -0.150819 -14.960887 -4.252592 -11.941542 -65.699651 0.000002 -19.846771 0.000005 17.494717 -9.880719 -18.765564 23.017169 12.604562 10.755188 4.760086 18.106492 1.492042 -0.579462 1.574993 2.538694 -0.000002 0.000001 -0.000000 0.112152 1.240194 -10.334162 0.112153 1.240186 -10.334176 0.112162 1.240191 -10.334165 0.000000 -0.000001 -0.000002 0.159172 1.474833 -12.318301 0.159975 1.478589 -12.350322 0.159574 1.476714 -12.334323 -0.000002 0.000000 -0.000001 0.306083 2.033930 -17.114255 0.306082 2.033927 -17.114268 0.306079 2.033923 -17.114284 -0.000002 0.000002 -0.000002 1.615415 6.027577 -17.917596 0.352239 -1.883032 -18.822763 0.350991 2.174344 -18.337550 0.000002 0.000000 -0.000001 0.750994 -0.572959 14.297113 -0.769025 31.076203 62.654357 -0.000010 14.616241 0.000027 2.061004 5.645170 8.666223 4.096768 -21.103365 -8.564851 5.065266 -13.326012 -0.557598 -0.484856 -8.725059 -3.015434 0.000000 0.000001 0.000001 0.252683 -1.860996 15.463074 0.252691 -1.860992 15.463048 0.252686 -1.861001 15.463039 0.000001 0.000000 -0.000002 0.380153 -2.271739 18.997010 0.380144 -2.271756 18.997022 0.380146 -2.271743 18.997012 0.000002 -0.000000 0.000001 0.564127 -2.748165 23.196212 0.564127 -2.748176 23.196221 0.564137 -2.748183 23.196207 0.000002 0.000003 -0.000002 0.640671 -2.920107 24.744099 0.640668 -2.920105 24.744097 0.640679 -2.920105 24.744083 0.000000 0.000001 -0.000002 -15.388744 5.816550 11.810745 26.816900 8.539925 3.347156 -12.422232 4.529077 -13.800854 -0.000076 -0.000005 -0.000003 -0.000000 0.000000 -0.000000 -14.633021 -5.903968 -4.451276 24.629406 -4.186712 -6.199973 -12.295302 -2.460083 12.080933 -3.346714 -0.000001 0.000002 -0.000000 0.000000 -0.000000 
-0.516192 91.718323 -3.010159 3.215156 4.592054 -2.164480 4.127195 -1.024640 -1.230643 1.172270 -0.270082 -0.042248 1.173370 -0.266503 -0.042403 1.614927 0.998157 0.657674 -1.475889 -6.236613 3.441167 0.000000 -0.000000 0.000000 0.744225 -0.092704 -14.979462 -4.313974 -11.983495 -65.676306 0.000003 -19.783993 -0.000008 17.486343 -10.101499 -19.827774 23.017188 12.604550 10.755170 4.760075 18.106483 1.492021 -0.579461 1.575004 2.538725 0.000002 0.000001 -0.000000 0.113311 1.246496 -10.387405 0.113312 1.246508 -10.387420 0.113297 1.246497 -10.387426 0.000001 -0.000001 -0.000003 0.159294 1.475423 -12.323396 0.160113 1.479190 -12.355405 0.159710 1.477308 -12.339384 -0.000001 -0.000001 -0.000000 0.302186 2.021240 -17.004176 0.302185 2.021235 -17.004200 0.302185 2.021230 -17.004186 0.000001 -0.000001 -0.000003 1.600687 6.014662 -17.777043 0.346816 -1.898968 -18.683581 0.345717 2.158381 -18.197979 0.000001 0.000002 -0.000000 0.749946 -0.574450 14.265621 -0.746169 31.128211 62.541761 -0.000008 14.560541 0.000017 1.680861 5.991593 9.034075 4.096755 -21.103369 -8.564868 5.065270 -13.326029 -0.557608 -0.484845 -8.725057 -3.015440 -0.000002 -0.000003 -0.000001 0.242322 -1.823141 15.140736 0.242326 -1.823135 15.140709 0.242315 -1.823148 15.140719 0.000002 -0.000003 -0.000004 0.364161 -2.224793 18.589379 0.364153 -2.224781 18.589395 0.364159 -2.224800 18.589376 0.000001 -0.000001 -0.000001 0.539974 -2.691162 22.687109 0.539970 -2.691153 22.687117 0.539978 -2.691163 22.687126 -0.000001 0.000000 -0.000002 0.613115 -2.859632 24.197584 0.613105 -2.859647 24.197576 0.613108 -2.859635 24.197569 -0.000001 0.000000 0.000000 -15.371030 5.841457 11.840060 26.695542 8.539648 3.322103 -12.338437 4.505262 -13.802622 -0.000147 0.000003 0.000001 0.000000 -0.000000 0.000000 -14.604859 -5.905546 -4.423880 24.532868 -4.193063 -6.229600 -12.253372 -2.452784 12.079190 -3.345693 0.000000 0.000002 0.000000 0.000000 0.000000 
-0.531443 91.772728 -2.962728 3.195693 4.529704 -2.072589 4.098724 -0.990689 -1.408409 1.163867 -0.260495 -0.052408 1.165034 -0.256564 -0.052557 1.623572 0.994558 0.663131 -1.415224 -6.243858 3.457151 0.000000 0.000000 0.000000 0.738742 -0.186805 -14.940426 -4.227780 -12.028752 -65.599801 0.000000 -19.742407 -0.000002 17.349838 -10.646715 -20.698769 23.017171 12.604543 10.755162 4.760078 18.106499 1.492039 -0.579463 1.574987 2.538688 0.000004 0.000001 -0.000001 0.115094 1.256232 -10.469288 0.115097 1.256212 -10.469309 0.115098 1.256215 -10.469292 -0.000001 0.000002 -0.000000 0.160135 1.479282 -12.356053 0.160965 1.483041 -12.388054 0.160549 1.481153 -12.372059 0.000001 -0.000001 -0.000002 0.299194 2.011453 -16.919173 0.299195 2.011445 -16.919186 0.299194 2.011436 -16.919188 0.000002 -0.000000 -0.000000 1.588544 6.003995 -17.661083 0.342371 -1.912105 -18.568764 0.341404 2.145188 -18.082851 -0.000003 -0.000001 -0.000000 0.749524 -0.576089 14.251726 -0.714097 31.154009 62.528367 0.000007 14.543315 -0.000007 1.322338 6.302815 9.533490 4.096758 -21.103364 -8.564871 5.065270 -13.326002 -0.557574 -0.484858 -8.725055 -3.015445 0.000003 -0.000001 -0.000001 0.232084 -1.784895 14.815515 0.232079 -1.784899 14.815520 0.232078 -1.784894 14.815515 0.000002 0.000000 -0.000000 0.348316 -2.177169 18.177037 0.348328 -2.177168 18.177041 0.348323 -2.177174 18.177029 0.000002 0.000000 0.000001 0.515996 -2.633157 22.171088 0.516001 -2.633153 22.171112 0.516013 -2.633157 22.171103 0.000001 0.000001 -0.000001 0.585757 -2.798028 23.643315 0.585755 -2.798060 23.643286 0.585764 -2.798048 23.643313 0.000002 -0.000004 -0.000001 -15.174531 5.827345 11.736387 26.483449 8.540351 3.321182 -12.249312 4.673434 -13.811551 -0.000029 -0.000003 -0.000001 0.000000 -0.000000 -0.000000 -14.556670 -5.956416 -4.448101 24.458284 -4.057182 -6.306927 -12.241547 -2.434248 12.053806 -3.345267 -0.000002 -0.000003 -0.000000 -0.000000 -0.000000 
-0.536102 91.797363 -2.929347 3.238695 4.494066 -2.019191 4.033649 -0.982318 -1.481074 1.153173 -0.257761 -0.076587 1.154313 -0.253916 -0.076753 1.642197 0.983607 0.669827 -1.380288 -6.269449 3.391645 -0.000000 0.000000 0.000000 0.738825 -0.169007 -14.914403 -4.213192 -12.109782 -65.568771 0.000001 -19.737809 -0.000025 17.316951 -10.832123 -21.583937 23.017162 12.604543 10.755162 4.760066 18.106497 1.492059 -0.579462 1.574996 2.538697 0.000000 -0.000001 0.000001 0.117486 1.269072 -10.577606 0.117493 1.269058 -10.577614 0.117480 1.269052 -10.577629 0.000000 -0.000002 -0.000004 0.161644 1.486126 -12.414184 0.162477 1.489885 -12.446170 0.162048 1.488004 -12.430186 -0.000002 0.000001 0.000001 0.297037 2.004305 -16.857341 0.297025 2.004311 -16.857344 0.297020 2.004301 -16.857353 0.000001 0.000002 -0.000001 1.578797 5.995409 -17.567875 0.338845 -1.922687 -18.476444 0.337938 2.134585 -17.990303 -0.000003 -0.000001 -0.000000 0.750894 -0.587802 14.277393 -0.627983 31.236118 62.436487 -0.000004 14.512894 -0.000009 1.023296 6.631189 10.061226 4.096759 -21.103369 -8.564865 5.065278 -13.326018 -0.557592 -0.484866 -8.725044 -3.015428 -0.000003 0.000000 0.000005 0.221979 -1.746281 14.487685 0.221994 -1.746291 14.487649 0.221980 -1.746275 14.487671 0.000002 0.000000 -0.000001 0.332678 -2.128922 17.760334 0.332653 -2.128937 17.760336 0.332657 -2.128936 17.760329 0.000003 -0.000001 0.000000 0.492269 -2.574209 21.648730 0.492266 -2.574222 21.648701 0.492281 -2.574212 21.648727 -0.000002 0.000002 -0.000000 0.558648 -2.735379 23.081952 0.558669 -2.735398 23.081934 0.558655 -2.735383 23.081940 -0.000000 0.000001 -0.000002 -15.120579 5.760039 11.608297 26.381976 8.543364 3.390968 -12.205800 4.828735 -13.838082 0.000002 0.000002 -0.000005 0.000000 0.000002 0.000000 -14.595042 -5.984337 -4.477624 24.435043 -3.970710 -6.339052 -12.243754 -2.418745 12.034946 -3.344832 0.000000 -0.000003 -0.000000 -0.000000 -0.000000 
-0.529701 91.833992 -2.895128 3.293036 4.458505 -2.034131 4.004584 -0.976724 -1.456828 1.153897 -0.256359 -0.081340 1.154998 -0.252621 -0.081530 1.633406 0.983373 0.673804 -1.403238 -6.239117 3.283559 0.000001 -0.000000 -0.000000 0.742597 -0.102962 -14.940060 -4.257866 -12.173741 -65.540433 0.000007 -19.692574 0.000004 17.454856 -11.298836 -22.420885 23.017183 12.604554 10.755160 4.760060 18.106478 1.492054 -0.579470 1.574999 2.538707 -0.000001 -0.000000 -0.000000 0.120446 1.284780 -10.710158 0.120439 1.284774 -10.710161 0.120430 1.284776 -10.710175 0.000003 0.000000 -0.000001 0.163761 1.495718 -12.495661 0.164598 1.499483 -12.527644 0.164169 1.497599 -12.511656 0.000002 0.000001 -0.000003 0.295619 1.999626 -16.816721 0.295600 1.999620 -16.816749 0.295601 1.999623 -16.816732 0.000001 0.000000 -0.000002 1.571242 5.988723 -17.495506 0.336087 -1.930901 -18.404783 0.335269 2.126344 -17.918434 -0.000001 -0.000002 0.000001 0.751199 -0.599325 14.272885 -0.553536 31.345845 62.335325 -0.000002 14.476272 0.000001 0.830086 6.835063 10.511918 4.096753 -21.103370 -8.564882 5.065269 -13.326017 -0.557595 -0.484846 -8.725042 -3.015427 -0.000003 0.000002 0.000002 0.212023 -1.707316 14.157406 0.212037 -1.707319 14.157404 0.212031 -1.707325 14.157401 0.000007 -0.000003 -0.000001 0.317208 -2.080112 17.339629 0.317230 -2.080117 17.339634 0.317223 -2.080117 17.339630 0.000000 -0.000003 0.000000 0.468820 -2.514390 21.120487 0.468823 -2.514386 21.120511 0.468824 -2.514400 21.120492 -0.000001 0.000002 0.000002 0.531882 -2.671721 22.514049 0.531876 -2.671736 22.514043 0.531872 -2.671723 22.514050 0.000001 -0.000002 -0.000002 -15.094114 5.737347 11.589474 26.289501 8.545495 3.431962 -12.180609 4.894844 -13.863528 -0.000067 -0.000007 -0.000000 0.000000 0.000002 0.000000 -14.589803 -6.005924 -4.456503 24.329902 -3.912513 -6.337873 -12.206023 -2.402767 12.013412 -3.345182 0.000001 0.000000 -0.000000 0.000000 0.000000 
